PathFileType	4	(X/Y/Z)	1H_nor_fast_left.trc
DataRate	CameraRate	NumFrames	NumMarkers	Units	OrigDataRate	OrigDataStartFrame	OrigNumFrames
250.00	250.00	8	18	mm	250.00	953	7622
Frame#	Time	c7	r_should	r_elb_m	clavicle	r_upa	r_wri_m	l_upa	l_elb_l	l_low	l_wri_l	l_met	l_elb_m	r_elb_l	l_should	r_low	r_wri_l	r_met	l_wri_m
	X1	Y1	Z1	X2	Y2	Z2	X3	Y3	Z3	X4	Y4	Z4	X5	Y5	Z5	X6	Y6	Z6	X7	Y7	Z7	X8	Y8	Z8	X9	Y9	Z9	X10	Y10	Z10	X11	Y11	Z11	X12	Y12	Z12	X13	Y13	Z13	X14	Y14	Z14	X15	Y15	Z15	X16	Y16	Z16	X17	Y17	Z17	X18	Y18	Z18
953	3.80800	1110.97766	1425.47717	115.79222	1157.11548	1355.42419	282.32565	1093.75403	1023.25903	292.17023	1223.37659	1285.10632	109.17503	nan	nan	nan	1131.07556	790.71558	368.52832	1152.19360	1154.47693	-134.60316	1166.33301	1049.81250	-152.75015	1188.63867	933.50464	-127.95791	1207.31042	830.16046	-73.35725	1247.32104	759.86066	-101.52742	1089.40967	1033.54395	-91.35412	1168.19067	1048.81189	348.72375	1141.10974	1356.59460	-56.21815	1184.51746	913.35260	343.44662	1196.20264	786.66986	328.36212	1209.03918	725.25812	374.48889	1156.86963	803.05957	-125.36591
954	3.81200	1110.92285	1425.48157	115.72276	1156.98926	1355.48254	282.31168	1093.72107	1023.30432	292.18872	1223.38037	1285.14844	109.21770	nan	nan	nan	1131.00342	790.78906	368.64526	1152.28467	1154.23938	-134.36195	1166.46252	1049.47693	-152.51634	1188.28601	932.93219	-128.15030	1206.55237	829.18713	-74.09834	1246.20312	758.85388	-102.65982	1089.48779	1033.32068	-90.95864	1168.11633	1048.88464	348.78296	1141.18152	1356.54187	-56.25633	1184.44849	913.41705	343.54514	1196.24634	786.46796	328.13925	1208.95410	725.32562	374.66605	1155.91382	802.57965	-126.12666
955	3.81600	1110.86792	1425.48181	115.64909	1156.86462	1355.54407	282.29382	1093.68152	1023.34833	292.20615	1223.38159	1285.19177	109.26868	nan	nan	nan	1130.92627	790.86163	368.75955	1152.38074	1153.98840	-134.10387	1166.58276	1049.14697	-152.28754	1187.95251	932.36115	-128.33241	1205.81360	828.24219	-74.81493	1245.11060	757.84375	-103.76881	1089.56604	1033.08044	-90.57266	1168.04138	1048.95862	348.83694	1141.25415	1356.48730	-56.29367	1184.37842	913.48047	343.63168	1196.21704	786.45740	328.21350	1208.86938	725.39227	374.83945	1154.93445	802.08777	-126.83515
956	3.82000	1110.81189	1425.47827	115.57420	1156.73767	1355.60559	282.27277	1093.63196	1023.40009	292.22617	1223.38269	1285.23083	109.32224	nan	nan	nan	1130.83984	790.92438	368.86630	1152.48682	1153.72595	-133.84521	1166.70825	1048.81580	-152.05663	1187.62964	931.81177	-128.51483	1205.09595	827.29633	-75.52994	1244.03284	756.84760	-104.86005	1089.66577	1032.82288	-90.17323	1167.96582	1049.02246	348.89215	1141.32874	1356.43127	-56.33764	1184.30969	913.54419	343.73145	1196.16248	786.49335	328.34735	1208.77905	725.46637	375.01389	1154.28711	801.32214	-127.30095
957	3.82400	1110.75732	1425.47144	115.50293	1156.60828	1355.66687	282.25797	1093.58679	1023.44727	292.24878	1223.38440	1285.26184	109.37586	nan	nan	nan	1130.76257	790.97699	368.97092	1152.60657	1153.46362	-133.58701	1166.85229	1048.47766	-151.80881	1187.30872	931.26587	-128.71446	1204.39771	826.37317	-76.23244	1242.94800	755.87354	-105.92252	1089.75964	1032.55725	-89.76096	1167.88623	1049.08850	348.95789	1141.40466	1356.37524	-56.38071	1184.23865	913.60187	343.83057	1196.10986	786.54181	328.47513	1208.69299	725.53735	375.18127	1153.73193	800.55017	-127.72383
958	3.82800	1110.70544	1425.46399	115.43004	1156.48145	1355.72241	282.24152	1093.52686	1023.49152	292.26041	1223.38440	1285.29260	109.42027	nan	nan	nan	1130.68701	791.02521	369.06946	1152.74023	1153.21729	-133.33395	1167.00464	1048.13916	-151.56233	1186.99146	930.69861	-128.92271	1203.70825	825.46301	-76.92279	1241.87610	754.92010	-106.97878	1089.86121	1032.29407	-89.33874	1167.81262	1049.15930	349.02127	1141.48865	1356.31836	-56.42270	1184.16467	913.66309	343.91806	1196.07117	786.60004	328.61780	1208.61450	725.60736	375.34341	1152.29529	800.51160	-128.73560
959	3.83200	1110.65295	1425.45361	115.35681	1156.36169	1355.77441	282.22083	1093.47864	1023.53870	292.27362	1223.38245	1285.32434	109.46602	nan	nan	nan	1130.61401	791.07751	369.16916	1152.87708	1152.99231	-133.09242	1167.15527	1047.80078	-151.30058	1186.69592	930.12946	-129.07866	1203.03345	824.59155	-77.59587	1240.81384	753.98120	-108.02600	1089.97083	1032.03821	-88.91102	1167.73767	1049.22729	349.07059	1141.57300	1356.25964	-56.46593	1184.09534	913.71820	344.01126	1196.03113	786.66022	328.77261	1208.53064	725.67554	375.50146	1151.24915	800.15796	-129.44507
960	3.83600	1110.60059	1425.44507	115.27990	1156.24219	1355.83167	282.20050	1093.44031	1023.57159	292.29138	1223.37964	1285.35303	109.51102	nan	nan	nan	1130.54187	791.13037	369.26590	1153.01562	1152.77637	-132.86659	1167.30103	1047.46240	-151.00574	1186.41052	929.58563	-129.21039	1202.37207	823.75214	-78.25368	1239.77075	753.05847	-109.03610	1090.07910	1031.79333	-88.48308	1167.67017	1049.28821	349.12784	1141.66003	1356.20203	-56.50711	1184.02673	913.77283	344.11432	1195.93188	786.87360	329.14694	1208.44312	725.74054	375.65451	1150.30920	799.77264	-130.06898
